<?xml version="1.0" encoding="utf-8"?>
<!-- Generator: Adobe Illustrator 25.1.0, SVG Export Plug-In . SVG Version: 6.00 Build 0)  -->
<svg version="1.1" id="Layer_1" xmlns="http://www.w3.org/2000/svg" xmlns:xlink="http://www.w3.org/1999/xlink" x="0px" y="0px"
	 viewBox="0 0 1004 818" style="enable-background:new 0 0 1004 818;" xml:space="preserve">
<style type="text/css">
	.st0{fill:#F3913A;}
	.st1{fill:#C32829;}
	.st2{fill:#4E6374;}
	.st3{fill:#4C677A;}
	.st4{fill:#617C8D;}
	.st5{fill:none;stroke:#000000;stroke-miterlimit:10;}
	.st6{fill:none;stroke:#000000;stroke-width:5;stroke-miterlimit:10;}
	.st7{fill:#FFFFFF;}
	.st8{fill:#FEFEFE;}
</style>
<g>
	<path class="st0" d="M600.5,96.5l344-71v184.28l-342-66.28C602.5,143.5,607.5,118.5,600.5,96.5z"/>
	<circle class="st1" cx="501.5" cy="159.5" r="13"/>
	<polygon class="st1" points="488.5,74 514.5,74 509.5,135.5 493.33,135.5 	"/>
	<polygon class="st2" points="648.5,181.5 648.5,227.11 603.11,181.5 	"/>
	<path class="st3" d="M501.32,223.24c15.25,0.4,31.93-2.74,48.18-12.74l63,62h-111"/>
	<path class="st4" d="M501.5,272.5H354.67v-91h48.44l1.39,38h36.61v-15.19c0,0,26.65,18.05,60.21,18.94L501.5,272.5"/>
	<path class="st5" d="M502.5,556.5"/>
	<path class="st5" d="M420.5,544.5"/>
	<path class="st5" d="M584.5,546.5"/>
	<path class="st5" d="M589.5,650.44"/>
	<path class="st6" d="M528.5,383.5"/>
	<path class="st3" d="M726.91,639.84c-2.06-7.74-12.4-6.43-18.6-6.51c-7.45-0.1-14.91-0.21-22.36-0.31
		c-12.21-0.17-24.42-0.34-36.62-0.51c-0.27,0-0.55-0.01-0.82-0.01l-21-166l-48-1l-1-19h47l-18.83-143H500.5l0.31,57.01
		c14.23,0.17,26.69,11.74,26.69,25.99v5v47h-26.27l0.27,50c2.71,0,5.42,0.11,8.12,0.34c2.41,0.2,4.81,0.49,7.2,0.87
		c22.56,3.59,43.21,15.21,56.35,34.1c10.8,15.52,14.98,34.16,15.31,52.85c0.3,17.18,0.02,34.39,0.02,51.57c0,7.41,0,14.82,0,22.22
		c8.19,0,16.38,0,24.56,0c17.24,0,34.48,0,51.72,0c17.22,0,34.49,0.39,51.67-0.15c1.93-0.06,3.91-0.13,5.7-0.87
		C725.76,647.95,727.91,643.61,726.91,639.84z"/>
	<path class="st4" d="M474.5,438.5v-47v-4c0-14.36,12.64-27,27-27c0.1,0,0.21,0.01,0.31,0.01l-0.31-57.01h-105l-4,26l52,1l-0.17,18
		H390.5l-16,123l57,1l-1,19h-58l-4,29h26v20h-28l-13,93c-11.73,0.11-23.45,0.14-35.18,0.11c-7.54-0.02-15.29-0.31-22.82-0.11
		c-2.63,0.07-5.25-0.01-7.88,0.2c-3.36,0.27-6.71,0.81-9.11,3.39c-2.9,3.11-3.1,8.13,0.38,10.89c1.66,1.31,3.72,2.26,5.83,2.33
		c5.78,0.19,10.29,0.12,15.55,0.12c5.14-0.01,10.32-0.21,15.48-0.22c13.78-0.04,27.57-0.29,41.35-0.29
		c13.3-0.09,26.61-0.19,39.91-0.28c5.83-0.04,11.66-0.08,17.49-0.12c-0.41-26.05-2.74-52.45,0.01-78.41
		c1.54-14.53,4.78-29.25,12.08-42.05c8.55-14.98,23-26.33,38.73-33.04c11.71-4.99,24.45-7.5,37.18-7.5l-0.27-50H474.5z"/>
	<path class="st4" d="M647.5,251.5c-1.48-3.16-3.8-4.87-6.27-7.17c-2.54-2.36-4.89-4.92-7.35-7.36c-3.75-3.73-7.35-7.78-11.33-11.27
		c-6.05-6.01-12.09-12.02-18.14-18.04c-5.77-5.74-11.54-11.47-17.31-17.21c-4.32-4.29-8.64-8.59-12.96-12.88
		c-1.7-1.69-3.4-3.38-5.1-5.07l0,0c10.95-14.14,17.45-31.82,17.45-51c0-46.39-38.06-84-85-84s-85,37.61-85,84s38.06,84,85,84
		c19.2,0,36.92-6.29,51.15-16.91l0,0c0.04,0.04,0.07,0.07,0.11,0.11c2.29,2.26,4.57,4.52,6.86,6.78c4.89,4.83,9.78,9.67,14.67,14.5
		c6.17,6.09,12.34,12.19,18.5,18.28c6.12,6.04,12.23,12.09,18.35,18.13c2.63,2.59,5.25,5.19,7.88,7.78
		c3.75,3.71,7.33,7.64,11.38,11.04c2.53,2.12,5.1,2.58,8.31,2.66c3.36,0.08,6.66-1.02,8.5-3.99
		C649.48,260.23,649.32,255.39,647.5,251.5z M501.5,187.5c-37,0-67-29.55-67-66s30-66,67-66s67,29.55,67,66S538.5,187.5,501.5,187.5
		z"/>
	<path class="st5" d="M501.5,272.5"/>
	<path class="st5" d="M501.5,224"/>
	<path class="st7" d="M77.45,760.42c0.43-0.96,0.73-2.01,0.93-2.66c0.75-2.35,1.48-4.71,2.21-7.06c1.8-5.83,3.57-11.68,5.33-17.52
		c1.95-6.47,3.9-12.94,5.85-19.4c1.83-6.04,3.66-12.08,5.54-18.1c0.84-2.69,1.68-5.38,2.55-8.06c0.21-0.66,0.83-1.11,1.53-1.11
		h16.45c0.69,0,1.3,0.44,1.52,1.1l24.13,73.9c0.49,1.46,3.51,1.46,4,0l22.63-73.91c0.22-0.65,0.83-1.09,1.52-1.09h16.15
		c1.09,0,1.86,1.06,1.53,2.09l-32.48,101.79c-0.21,0.67-0.83,1.12-1.53,1.12h-20.69c-0.71,0-1.34-0.47-1.54-1.15l-21.5-72.5
		c-0.07-0.23-0.19-0.44-0.35-0.62l-0.1-0.11c-0.71-0.79-1.97-0.68-2.54,0.21l0,0c-0.08,0.12-0.14,0.24-0.18,0.38l-23.3,72.69
		c-0.21,0.66-0.83,1.11-1.53,1.11H63.68c-0.7,0-1.32-0.45-1.53-1.12L30.16,688.58c-0.32-1.03,0.45-2.08,1.53-2.08h17.35
		c0.71,0,1.33,0.46,1.54,1.13c1.57,5.12,3.12,10.24,4.66,15.37c1.91,6.35,3.81,12.7,5.71,19.05c1.88,6.28,3.76,12.57,5.64,18.85
		c1.55,5.17,3.1,10.34,4.67,15.5c0.61,2.02,0.99,4.27,2.7,5.68C75.61,763.45,76.72,762.07,77.45,760.42z"/>
	<path class="st7" d="M265,731c-2.97-8.49-8.61-15.55-17.39-18.36c-5.97-1.91-12.36-2.01-18.63-1.93c-5.2,0.07-10.42,0.25-15.5,1.33
		c-2.84,0.61-5.64,1.5-8.25,2.78c-0.61,0.3-6.53,3.6-6.22,4.17c1.2,2.23,2.4,4.45,3.6,6.68c1,1.85,1.97,4.79,3.44,6.29
		c0.03,0.03,0.06,0.06,0.08,0.08c0.94-1.39,3.43-2.33,4.9-3.05c1.88-0.92,3.83-1.68,5.83-2.27c3.85-1.15,7.87-1.69,11.89-1.57
		c5.24,0.16,10.63,1.52,14.58,4.96c3.29,2.86,5.4,7.41,4.8,11.81c-0.11,0.82-0.16,2.22-0.47,2.95c-0.32,0.77-0.29,0.59-1.23,0.61
		c-0.72,0.02-1.45,0-2.17,0c-2.81,0-5.61,0-8.42,0c-4.69,0-9.38,0-14.07,0c-5.5,0-11.03,0.21-15.85,3.26
		c-5.93,3.75-8.65,10.04-9.55,16.78c-0.91,6.76,1.16,15.77,7.15,19.96c19,13.3,36.19,3.14,37.87,2.09c0.09-0.06,0.17-0.12,0.24-0.19
		l5.44-5.44c0.89-0.89,2.4-0.24,2.38,1.02l-0.16,7.1c-0.02,0.78,0.61,1.42,1.39,1.42h14.96c0.77,0,1.39-0.62,1.39-1.39V749
		C267,735,265,731,265,731z M247.64,764.92c-0.25,2.81-1.05,5.63-2.75,7.88c-1.68,2.23-4.13,3.77-6.68,4.92
		c-3.21,1.45-6.7,2.36-10.22,2.23c-3.52-0.13-7.05-1.37-9.61-3.78c-3.81-3.6-4.56-9.56-2.19-14.2c0.82-1.62,2.08-3.02,3.64-3.97
		c2.14-1.3,4.69-1.74,7.18-2.03c3.48-0.4,6.99-0.54,10.49-0.44c3.16,0.09,6.31,0.39,9.44,0.89c0.23,0.04,0.41,0.23,0.44,0.46
		C247.64,759.56,247.88,762.25,247.64,764.92z"/>
	<path class="st7" d="M294.5,691.5h19l0.06,20.72l19.94,0.28v15h-20L313,766c0,0,0.5,9.5,8.5,10.5c0,0,6.33,1.89,12.17-1.06
		l4.83,13.06c0,0-11,7-29,2c0,0-14-4-15-19l-0.5-44.61h-11.5V712.5h12V691.5z"/>
	<path class="st7" d="M545.5,691.5h19l0.06,20.72l19.94,0.28v15h-20L564,766c0,0,0.5,9.5,8.5,10.5c0,0,6.33,1.89,12.17-1.06
		l4.83,13.06c0,0-11,7-29,2c0,0-14-4-15-19l-0.5-44.61h-11.5V712.5h12V691.5z"/>
	<path class="st7" d="M423.5,774.5c-7.55,11.17-19.5,19-34,19c-23.2,0-42-18.8-42-42s18.8-42,42-42c14.28,0,25.41,7.1,33,18l-13,9
		c-4.06-7.23-11.75-11-20-11c-12.7,0-23,11.42-23,25.5s10.3,25.5,23,25.5c7.73,0,14.83-3.52,19-10L423.5,774.5z"/>
	<path class="st7" d="M441,680h19v40.43c0,1.27,1.59,1.83,2.39,0.84c2.99-3.7,9.18-9,20.61-10.27c18-2,28.5,10.5,28.5,10.5s5,5,6,21
		l1,49c0,0-19.17,0-19.17,0c0-8.66,0-17.33,0-25.99c0-4.48,0.12-8.98,0-13.46c-0.08-2.94,0.31-5.85-0.14-8.82
		c-0.46-3.03-1.48-5.98-3.1-8.59c-3.09-4.96-8.53-8.57-14.37-8.81c-2.59-0.11-5.2,0.43-7.58,1.46c-5.3,2.29-9.37,6.98-11.57,12.32
		c-2.99,7.28-2.08,15.08-2.09,22.73c-0.01,6.56-0.02,13.11-0.02,19.67c0,0.52-0.01,9.48-0.01,9.48c0,0-19.44,0-19.44,0V680z"/>
	<path class="st7" d="M640,709c-23.2,0-42,18.8-42,42c0,23.2,18.8,42,42,42s42-18.8,42-42C682,727.8,663.2,709,640,709z
		 M640.5,776.5c-12.15,0-22-11.42-22-25.5s9.85-25.5,22-25.5s22,11.42,22,25.5S652.65,776.5,640.5,776.5z"/>
	<path class="st8" d="M690.5,711.5h17.06l18.88,55.87c0.35,1.04,1.81,1.05,2.18,0.02l20.16-55.89h16.67l18.7,55.96
		c0.44,1.31,2.29,1.33,2.75,0.02l19.44-55.97h17.33l-27.17,80h-21.28l-16.68-52.66c-0.47-1.48-2.55-1.51-3.06-0.04l-18.38,52.71H717
		L690.5,711.5z"/>
	<path class="st7" d="M850.85,755.55l59.65,0.95c4-27-15.36-46-38-46s-41,18.58-41,41.5c0,22.92,18.36,41.5,41,41.5
		c12.69,0,25.48-3.84,33-13l-11-10c-30.82,17.84-42.56-3.12-45.9-11.68C847.98,757.23,849.15,755.53,850.85,755.55z M851.21,742.1
		c0.48-1.35,1.07-2.67,1.75-3.94c1.36-2.53,3.1-4.85,5.2-6.81c3.76-3.51,8.67-5.83,13.8-6.21c5.13-0.38,10.43,1.26,14.28,4.68
		c3.25,2.89,5.31,6.88,6.39,11.04c0.3,1.14,0.95,2.94,0.76,4.11c-0.12,0.71-0.02,0.4-0.56,0.53c-0.66,0.15-1.54,0-2.22,0
		c-2.63,0-5.25,0-7.88,0c-6.96,0-13.93,0-20.89,0c-3.78,0-7.56,0-11.34,0C850.79,744.36,850.79,743.26,851.21,742.1z"/>
	<path class="st7" d="M930.25,711.5h19.33v11.79c0,0.53,0.68,0.76,0.99,0.32c2.59-3.62,10.07-12.72,20.01-13.12h6.92v18
		c0,0-8.99,0-9,0c-5.77,0-11.16,4.32-14.01,9c-3,4.93-4.2,10.83-4.15,16.56c0.04,4.85,0.22,9.69,0.24,14.56
		c0.03,7.5,0.06,15,0.09,22.5c0,0.02,0,0.39,0,0.39c0,0-20.42,0-20.42,0V711.5z"/>
</g>
<g>
</g>
<g>
</g>
<g>
</g>
<g>
</g>
<g>
</g>
<g>
</g>
<g>
</g>
<g>
</g>
<g>
</g>
<g>
</g>
<g>
</g>
<g>
</g>
<g>
</g>
<g>
</g>
<g>
</g>
</svg>
